<svg id="_1" data-name="1" xmlns="http://www.w3.org/2000/svg" width="20" height="20" viewBox="0 0 20 20">
  <g id="Group">
    <path id="Oval_318" data-name="Oval 318" d="M56.6,445.824v2.426h2.939v-2.426ZM58,452a10,10,0,1,1,10-10A10,10,0,0,1,58,452Zm-3.037-15.612A3.773,3.773,0,0,0,53,439.78h2.85a2.23,2.23,0,0,1,.478-1.344,1.887,1.887,0,0,1,1.622-.646,2.01,2.01,0,0,1,1.6.525,1.77,1.77,0,0,1,.439,1.163,1.528,1.528,0,0,1-.395,1.015l-.572.5-.72.479a3.7,3.7,0,0,0-1.321,1.246,5.679,5.679,0,0,0-.316,1.96h2.663a3.182,3.182,0,0,1,.128-.99,1.854,1.854,0,0,1,.759-.882l.7-.461a6.98,6.98,0,0,0,1.44-1.159A2.725,2.725,0,0,0,63,439.342a2.956,2.956,0,0,0-1.474-2.686,6.964,6.964,0,0,0-3.7-.906A5.885,5.885,0,0,0,54.962,436.388Zm0,0" transform="translate(-48 -432)" fill="#8c8c8c" fill-rule="evenodd"/>
  </g>
</svg>
