<svg id="iconfinder_14_330405" xmlns="http://www.w3.org/2000/svg" width="28" height="28" viewBox="0 0 28 28">
  <path id="Path_1716" data-name="Path 1716" d="M30.125,14.934a14,14,0,1,1-14,14A14,14,0,0,1,30.125,14.934Zm0,26.02a12.02,12.02,0,1,0-12.02-12.02A12.021,12.021,0,0,0,30.125,40.954Z" transform="translate(-16.125 -14.934)" fill="#efc849"/>
  <ellipse id="Ellipse_111" data-name="Ellipse 111" cx="10.83" cy="10.83" rx="10.83" ry="10.83" transform="translate(3.17 3.17)" fill="#efc849"/>
  <path id="Path_1717" data-name="Path 1717" d="M85.037,102.705v2.565H78.446v4.665h6.591V112.5l4.471-2.565h.02v-.011l3.993-2.291-3.993-2.319v-.043h-.074Z" transform="translate(-71.984 -93.603)" fill="#fff"/>
</svg>
