<svg xmlns="http://www.w3.org/2000/svg" width="19.771" height="24.283" viewBox="0 0 19.771 24.283">
  <g id="iconfinder_basket_1814090" transform="translate(-12.5 -8)">
    <g id="Icon-Trash" transform="translate(12.5 8)">
      <path id="Fill-6" d="M-207.5-205.1h1.521v12.167H-207.5Z" transform="translate(213.583 212.653)"/>
      <path id="Fill-7" d="M-201.5-205.1h1.521v12.167H-201.5Z" transform="translate(210.625 212.653)"/>
      <path id="Fill-8" d="M-195.5-205.1h1.521v12.167H-195.5Z" transform="translate(207.667 212.653)"/>
      <path id="Fill-9" d="M-219.5-214.1h19.771v1.521H-219.5Z" transform="translate(219.5 217.091)"/>
      <path id="Fill-10" d="M-199.9-216.249h-1.419v-1.521a.8.8,0,0,0-.811-.811h-3.042a.8.8,0,0,0-.811.811v1.521H-207.4v-1.521A2.25,2.25,0,0,1-205.169-220h3.042a2.25,2.25,0,0,1,2.231,2.231v1.521" transform="translate(213.534 220)"/>
      <path id="Fill-11" d="M-203.573-192.118H-212.7a2.461,2.461,0,0,1-2.383-2.231L-216.5-212.6l1.521-.1,1.419,18.25a.918.918,0,0,0,.862.811h9.125a.881.881,0,0,0,.862-.811l1.419-18.25,1.521.1-1.419,18.25a2.42,2.42,0,0,1-2.383,2.231" transform="translate(218.021 216.401)"/>
    </g>
  </g>
</svg>
