<svg xmlns="http://www.w3.org/2000/svg" width="52" height="51" viewBox="0 0 52 51">
  <g id="Group_580" data-name="Group 580" transform="translate(-0.095)">
    <g id="iconfinder_201-LinkedIn_192159" transform="translate(14.252 13.945)">
      <path id="Path_1624" data-name="Path 1624" d="M18.264,53.68V44.615A2.687,2.687,0,0,0,15.65,42.19,2.849,2.849,0,0,0,12.876,44.5V53.68H8.044l.079-14.974H12.8l-.038,1.882s.975-2.46,4.647-2.46,5.334,2.11,5.643,6.055v9.5ZM2.117,36.579A2.848,2.848,0,0,1-.891,33.923a2.851,2.851,0,0,1,3.008-2.658,2.851,2.851,0,0,1,3.008,2.658A2.848,2.848,0,0,1,2.117,36.579ZM5.1,53.7H-.841V38.744L5.1,38.706Z" transform="translate(0.891 -31.265)" fill="#38ada9"/>
    </g>
    <g id="Ellipse_93" data-name="Ellipse 93" transform="translate(0.095 0)" fill="none" stroke="#e32d96" stroke-width="1">
      <ellipse cx="26" cy="25.5" rx="26" ry="25.5" stroke="none"/>
      <ellipse cx="26" cy="25.5" rx="25.5" ry="25" fill="none"/>
    </g>
    <g id="Ellipse_103" data-name="Ellipse 103" transform="translate(0.096)" fill="none" stroke="#38ada9" stroke-width="1">
      <ellipse cx="26" cy="25.5" rx="26" ry="25.5" stroke="none"/>
      <ellipse cx="26" cy="25.5" rx="25.5" ry="25" fill="none"/>
    </g>
  </g>
</svg>
