<svg xmlns="http://www.w3.org/2000/svg" width="52" height="51" viewBox="0 0 52 51">
  <g id="Group_585" data-name="Group 585" transform="translate(-254 -8524)">
    <g id="Group_584" data-name="Group 584" transform="translate(-0.018 -4.207)">
      <g id="google-plus" transform="translate(287.525 8549.265)">
        <path id="Path_154" data-name="Path 154" d="M23.335,9H20.39v2.931H17.459v2.945H20.39v2.931h2.945V14.876h2.931V11.931H23.335Z" transform="translate(-17.459 -9)" fill="#38ada9"/>
      </g>
      <path id="Path_155" data-name="Path 155" d="M10.1,24.7c5.827,0,9.7-4.091,9.7-9.864a8.629,8.629,0,0,0-.164-1.68H10.1v3.471h5.732A5.469,5.469,0,0,1,10.1,20.977a6.38,6.38,0,0,1,0-12.758,5.673,5.673,0,0,1,4.023,1.556l2.741-2.631A9.657,9.657,0,0,0,10.1,4.5a10.1,10.1,0,1,0,0,20.2Z" transform="translate(264.018 8538.706)" fill="#38ada9"/>
    </g>
    <g id="Ellipse_104" data-name="Ellipse 104" transform="translate(254 8524)" fill="none" stroke="#38ada9" stroke-width="1">
      <ellipse cx="26" cy="25.5" rx="26" ry="25.5" stroke="none"/>
      <ellipse cx="26" cy="25.5" rx="25.5" ry="25" fill="none"/>
    </g>
  </g>
</svg>
