<svg xmlns="http://www.w3.org/2000/svg" width="52" height="52" viewBox="0 0 52 52">
  <g id="Group_579" data-name="Group 579" transform="translate(-0.048)">
    <g id="instagram" transform="translate(13.811 13.921)">
      <g id="Group_229" data-name="Group 229" transform="translate(0 0)">
        <g id="Group_228" data-name="Group 228">
          <path id="Path_156" data-name="Path 156" d="M16.69,0h-9.1A7.587,7.587,0,0,0,0,7.586v9.1a7.587,7.587,0,0,0,7.586,7.586h9.1a7.587,7.587,0,0,0,7.586-7.586v-9.1A7.587,7.587,0,0,0,16.69,0ZM22,16.69A5.316,5.316,0,0,1,16.69,22h-9.1A5.316,5.316,0,0,1,2.276,16.69v-9.1A5.316,5.316,0,0,1,7.586,2.276h9.1A5.316,5.316,0,0,1,22,7.586Z" transform="translate(0 0)" fill="#38ada9"/>
        </g>
      </g>
      <g id="Group_231" data-name="Group 231" transform="translate(6.069 6.069)">
        <g id="Group_230" data-name="Group 230">
          <path id="Path_157" data-name="Path 157" d="M134.069,128a6.069,6.069,0,1,0,6.069,6.069A6.069,6.069,0,0,0,134.069,128Zm0,9.862a3.793,3.793,0,1,1,3.793-3.793A3.8,3.8,0,0,1,134.069,137.862Z" transform="translate(-128 -128)" fill="#38ada9"/>
        </g>
      </g>
      <g id="Group_233" data-name="Group 233" transform="translate(17.854 4.805)">
        <g id="Group_232" data-name="Group 232">
          <ellipse id="Ellipse_39" data-name="Ellipse 39" cx="0.809" cy="0.809" rx="0.809" ry="0.809" fill="#38ada9"/>
        </g>
      </g>
    </g>
    <g id="Ellipse_92" data-name="Ellipse 92" transform="translate(0.048 0)" fill="none" stroke="#38ada9" stroke-width="1">
      <circle cx="26" cy="26" r="26" stroke="none"/>
      <circle cx="26" cy="26" r="25.5" fill="none"/>
    </g>
  </g>
</svg>
