<svg xmlns="http://www.w3.org/2000/svg" width="11.486" height="19.955" viewBox="0 0 11.486 19.955">
  <g id="iconfinder_Dollar_1737376" transform="translate(-79.169 -76.794)">
    <path id="Path_1706" data-name="Path 1706" d="M195.761,152.657c0-1.049,1.534-1.228,2.865-1.228a10.768,10.768,0,0,1,4.4,1.331l.281-2.891a10.854,10.854,0,0,0-4.068-1l.409-2.942h-2.737l.41,2.942c-3.53.332-4.682,2.379-4.682,4.093,0,4.323,8.058,3.4,8.058,6.063,0,1-.946,1.356-2.609,1.356a7.121,7.121,0,0,1-4.809-1.611l-.435,3.249a10.849,10.849,0,0,0,4.477,1.024l-.41,2.84h2.737l-.409-2.866c4.144-.358,4.886-2.559,4.886-4.016C204.126,153.86,195.761,155.138,195.761,152.657Z" transform="translate(-113.471 -69.135)"/>
  </g>
</svg>
