<svg xmlns="http://www.w3.org/2000/svg" width="40.171" height="34.432" viewBox="0 0 40.171 34.432">
  <path id="iconfinder_heart-o_1608926" d="M37.3,138.491a9.771,9.771,0,0,0-.482-3.206,6.259,6.259,0,0,0-1.233-2.208,5.919,5.919,0,0,0-1.827-1.334,8.092,8.092,0,0,0-2.107-.695,12.821,12.821,0,0,0-2.2-.179,6.448,6.448,0,0,0-2.511.572,11.459,11.459,0,0,0-2.477,1.435q-1.132.863-1.939,1.614a17.352,17.352,0,0,0-1.345,1.379,1.47,1.47,0,0,1-2.2,0,17.352,17.352,0,0,0-1.345-1.379q-.807-.751-1.939-1.614a11.459,11.459,0,0,0-2.477-1.435,6.448,6.448,0,0,0-2.511-.572,12.821,12.821,0,0,0-2.2.179,8.092,8.092,0,0,0-2.107.695,5.919,5.919,0,0,0-1.827,1.334,6.259,6.259,0,0,0-1.233,2.208,9.771,9.771,0,0,0-.482,3.206q0,3.766,4.192,7.958L20.085,159l13-12.531Q37.3,142.257,37.3,138.491Zm2.869,0q0,4.954-5.133,10.088l-13.966,13.45a1.407,1.407,0,0,1-1.973,0L5.111,148.534a7.394,7.394,0,0,1-.616-.583q-.392-.4-1.244-1.468A19.838,19.838,0,0,1,1.726,144.3a13.577,13.577,0,0,1-1.2-2.712A9.819,9.819,0,0,1,0,138.491a10.281,10.281,0,0,1,2.847-7.711Q5.694,128,10.715,128a8.935,8.935,0,0,1,2.836.482,11.476,11.476,0,0,1,2.69,1.3q1.244.818,2.141,1.536a20.659,20.659,0,0,1,1.7,1.524,20.658,20.658,0,0,1,1.7-1.524q.9-.717,2.141-1.536a11.476,11.476,0,0,1,2.69-1.3A8.935,8.935,0,0,1,29.456,128q5.021,0,7.868,2.78A10.281,10.281,0,0,1,40.171,138.491Z" transform="translate(0 -128)" fill="#38ada9"/>
</svg>
