<svg xmlns="http://www.w3.org/2000/svg" width="41.564" height="29.157" viewBox="0 0 41.564 29.157">
  <path id="iconfinder_ic_hotmail_logo_5761449" d="M40.3,46.646a.633.633,0,0,0-.892,0,7.315,7.315,0,0,1-4.3,1.582V43.891c3.417-.4,5.233-3.948,5.312-4.113a.633.633,0,1,0-1.133-.563c0,.032-1.519,2.974-4.179,3.395V24.631A.633.633,0,0,0,34.442,24L4.7,25.58a.633.633,0,0,0-.6.633V38.867A5.676,5.676,0,0,0,1.259,40.06,3.673,3.673,0,0,0-.006,42.98c0,2.651,2.417,3.578,4.113,3.762v1.933a.633.633,0,0,0,.573.633l29.738,2.847h.06a.63.63,0,0,0,.633-.633V49.49A8.313,8.313,0,0,0,40.3,47.538.633.633,0,0,0,40.3,46.646ZM33.845,25.3v2.847L19.169,37.111a1.984,1.984,0,0,1-2.183-.073L5.372,28.743v-1.93ZM5.372,30.29l10.88,7.779a3.255,3.255,0,0,0,3.578.12l14.015-8.577V48.247a13.157,13.157,0,0,1-1.787-.2c-3.505-.633-7.371-2.411-11.468-4.309-4.5-2.085-9.155-4.242-13.547-4.875a10.823,10.823,0,0,0-1.67-.095ZM1.259,42.98a2.433,2.433,0,0,1,.823-1.952,4.252,4.252,0,0,1,2.025-.867v5.3C3.1,45.327,1.259,44.827,1.259,42.98ZM5.372,48.1V40.037a9.671,9.671,0,0,1,1.493.089c4.2.6,8.773,2.718,13.192,4.752,4.173,1.933,8.115,3.758,11.778,4.407a14.518,14.518,0,0,0,2.009.215v1.313Z" transform="translate(0.51 -23.497)" fill="#38ada9" stroke="#38ada9" stroke-width="1"/>
</svg>
