<svg xmlns="http://www.w3.org/2000/svg" width="21.065" height="18.624" viewBox="0 0 21.065 18.624">
  <g id="Layer_1" transform="translate(-26.956 -32.191)">
    <path id="Path_1707" data-name="Path 1707" d="M36.509,44.378V40.886h14.25V44.5" transform="translate(-6.303 -4.862)" fill="none" stroke="#231f20" stroke-linecap="round" stroke-linejoin="round" stroke-miterlimit="10" stroke-width="1.5"/>
    <path id="Path_1708" data-name="Path 1708" d="M46.989,53.665V63.8a1.583,1.583,0,0,1-1.583,1.583H29.572A1.583,1.583,0,0,1,27.989,63.8V53.665" transform="translate(0 -15.316)" fill="none" stroke="#231f20" stroke-linecap="round" stroke-linejoin="round" stroke-miterlimit="10" stroke-width="1.5"/>
    <path id="Path_1709" data-name="Path 1709" d="M27.989,53.736l8.1,5.048a2.47,2.47,0,0,0,2.741,0l8.156-5.039" transform="translate(0 -15.368)" fill="none" stroke="#231f20" stroke-linecap="round" stroke-linejoin="round" stroke-miterlimit="10" stroke-width="1.5"/>
    <path id="Path_1710" data-name="Path 1710" d="M30.206,48.3l-2.217,1.329" transform="translate(0 -11.35)" fill="none" stroke="#231f20" stroke-linecap="round" stroke-linejoin="round" stroke-miterlimit="10" stroke-width="1.5"/>
    <path id="Path_1711" data-name="Path 1711" d="M57,35.025c-1.3-.8-2.394-1.47-2.678-1.647a2.469,2.469,0,0,0-2.741,0c-.341.211-1.44.874-2.726,1.647" transform="translate(-15.44)" fill="none" stroke="#231f20" stroke-linecap="round" stroke-linejoin="round" stroke-miterlimit="10" stroke-width="1.5"/>
    <path id="Path_1712" data-name="Path 1712" d="M93.809,49.253,91.276,47.7" transform="translate(-46.82 -10.904)" fill="none" stroke="#231f20" stroke-linecap="round" stroke-linejoin="round" stroke-miterlimit="10" stroke-width="1.5"/>
  </g>
</svg>
